<?xml version="1.0" encoding="UTF-8"?>
<svg width="350px" height="342px" viewBox="0 0 350 342" version="1.1" xmlns="http://www.w3.org/2000/svg" xmlns:xlink="http://www.w3.org/1999/xlink">
    <title>Artboard</title>
    <g id="Artboard" stroke="none" stroke-width="1" fill="none" fill-rule="evenodd">
        <path d="M132.449219,52.2246094 C199.268872,52.2246094 236.868436,108.562624 238.002856,210.888577 L238.002916,220.48486 C237.412256,273.825006 226.913223,314.669322 207.532002,341.55183 C200.589094,333.018596 192.454297,323.020191 183.13145,311.561564 C194.203818,289.751954 199.873047,257.595181 199.873047,215.689453 C199.873047,203.115234 199.439453,191.625 198.355469,180.785156 L126.280543,241.686631 C119.843901,233.775412 113.129126,225.522343 106.136218,216.927425 L192.501953,144.796875 C182.3125,105.990234 161.933594,86.0449219 132.449219,86.0449219 C97.0703442,86.0449219 75.0096811,114.623584 67.5989613,169.561355 C57.9128557,157.656528 47.8082109,145.237001 37.2901741,132.309378 L37.2816101,132.297908 C52.7906952,80.1175927 85.2824371,52.2246094 132.449219,52.2246094 Z" id="Combined-Shape" fill="#090909" fill-rule="nonzero"></path>
        <polygon id="Path" fill="#E48641" fill-rule="nonzero" transform="translate(180.6788, 152.0867) rotate(51) translate(-180.6788, -152.0867)" points="273.720415 338.96507 273.133359 306.320692 215.968743 306.996423 218.365652 -34.7916853 180.859792 -34.7916853 87.6371361 25.6946428 87.6371361 66.4524553 177.174245 8.5676897 180.642995 8.5676897 180.141869 304.362963 122.755514 302.928994 121.306783 336.498343"></polygon>
    </g>
</svg>